<svg xmlns="http://www.w3.org/2000/svg" version="1.1" xmlns:xlink="http://www.w3.org/1999/xlink" xmlns:svgjs="http://svgjs.com/svgjs" width="512" height="512" x="0" y="0" viewBox="0 0 128 128" style="enable-background:new 0 0 512 512" xml:space="preserve" class=""><g><g xmlns="http://www.w3.org/2000/svg"><path d="m96.011 46.6-1.425-6.064a7.255 7.255 0 0 0 -7.092-5.619h-10.888a11.885 11.885 0 0 0 -11.735-10.129h-1.742a11.885 11.885 0 0 0 -11.735 10.129h-10.888a7.253 7.253 0 0 0 -7.091 5.618l-1.426 6.065a1.75 1.75 0 0 0 1.7 2.15h2.64l3.905 47.342a7.8 7.8 0 0 0 7.732 7.12h32.064a7.8 7.8 0 0 0 7.732-7.12l3.905-47.342h2.64a1.75 1.75 0 0 0 1.7-2.15zm-32.882-18.312h1.742a8.39 8.39 0 0 1 8.192 6.629h-18.126a8.39 8.39 0 0 1 8.192-6.629zm21.144 67.517a4.281 4.281 0 0 1 -4.243 3.907h-32.06a4.281 4.281 0 0 1 -4.243-3.912l-3.882-47.05h48.31zm-48.373-50.555.92-3.915a3.769 3.769 0 0 1 3.684-2.918h46.99a3.769 3.769 0 0 1 3.684 2.918l.922 3.915z" fill="#000000" data-original="#000000" class=""></path><path d="m64 90.981a1.749 1.749 0 0 0 1.75-1.75v-30a1.75 1.75 0 1 0 -3.5 0v30a1.749 1.749 0 0 0 1.75 1.75z" fill="#000000" data-original="#000000" class=""></path><path d="m51.613 90.981h.118a1.75 1.75 0 0 0 1.63-1.863l-2-30a1.75 1.75 0 1 0 -3.492.233l2 30a1.75 1.75 0 0 0 1.744 1.63z" fill="#000000" data-original="#000000" class=""></path><path d="m76.269 90.978h.118a1.75 1.75 0 0 0 1.744-1.633l2-30a1.75 1.75 0 1 0 -3.492-.233l-2 30a1.75 1.75 0 0 0 1.63 1.866z" fill="#000000" data-original="#000000" class=""></path></g></g></svg>