<svg xmlns="http://www.w3.org/2000/svg" xmlns:xlink="http://www.w3.org/1999/xlink" viewBox="0 0 462 226.13"><defs><style>.cls-1{isolation:isolate;}.cls-2,.cls-3{fill:url(#linear-gradient);}.cls-10,.cls-11,.cls-12,.cls-13,.cls-14,.cls-15,.cls-16,.cls-3,.cls-5,.cls-66,.cls-68,.cls-71,.cls-72,.cls-8,.cls-9{mix-blend-mode:screen;}.cls-4{fill:url(#linear-gradient-3);}.cls-10,.cls-11,.cls-12,.cls-13,.cls-14,.cls-15,.cls-16,.cls-41,.cls-5,.cls-67,.cls-68,.cls-69,.cls-8,.cls-9{opacity:0.5;}.cls-5{fill:url(#linear-gradient-4);}.cls-6{fill:url(#linear-gradient-5);}.cls-7{fill:url(#linear-gradient-6);}.cls-8{fill:url(#linear-gradient-7);}.cls-9{fill:url(#linear-gradient-8);}.cls-10{fill:url(#linear-gradient-9);}.cls-11{fill:url(#linear-gradient-10);}.cls-12{fill:url(#linear-gradient-11);}.cls-13{fill:url(#linear-gradient-12);}.cls-14{fill:url(#linear-gradient-13);}.cls-15{fill:url(#linear-gradient-14);}.cls-16{fill:url(#linear-gradient-15);}.cls-17{opacity:0.25;fill:url(#linear-gradient-16);}.cls-18{fill:url(#linear-gradient-17);}.cls-19{fill:url(#linear-gradient-18);}.cls-20,.cls-21,.cls-22,.cls-34,.cls-41,.cls-69{mix-blend-mode:multiply;}.cls-20,.cls-21{opacity:0.35;}.cls-20{fill:url(#linear-gradient-19);}.cls-21{fill:url(#linear-gradient-20);}.cls-23{fill:url(#linear-gradient-21);}.cls-24{fill:url(#linear-gradient-22);}.cls-25{fill:url(#linear-gradient-23);}.cls-26{fill:url(#linear-gradient-24);}.cls-27{fill:url(#linear-gradient-25);}.cls-28{fill:url(#linear-gradient-26);}.cls-29{fill:url(#linear-gradient-27);}.cls-30{fill:url(#linear-gradient-28);}.cls-31{fill:url(#linear-gradient-29);}.cls-32{fill:url(#linear-gradient-30);}.cls-33{fill:url(#linear-gradient-31);}.cls-34{fill:url(#linear-gradient-32);}.cls-35{fill:#f68895;}.cls-36{fill:#f17785;}.cls-37{fill:url(#Áåçûìÿííûé_ãðàäèåíò_18);}.cls-38{fill:url(#linear-gradient-33);}.cls-39{fill:#171721;}.cls-40{fill:url(#linear-gradient-34);}.cls-41{fill:url(#linear-gradient-35);}.cls-42{fill:url(#linear-gradient-36);}.cls-43{fill:#f4e4eb;}.cls-44{fill:#311649;}.cls-45{fill:#703cd5;}.cls-46,.cls-67{fill:#29283a;}.cls-47{fill:#da05d9;}.cls-48{fill:url(#linear-gradient-37);}.cls-49{fill:#30112a;}.cls-50{fill:#e542ea;}.cls-51{fill:url(#Áåçûìÿííûé_ãðàäèåíò_3);}.cls-52,.cls-69{fill:#c5205c;}.cls-53{fill:#aa0e4d;}.cls-54{fill:url(#Áåçûìÿííûé_ãðàäèåíò_18-2);}.cls-55{fill:url(#Áåçûìÿííûé_ãðàäèåíò_18-3);}.cls-56{fill:#e2d5ff;}.cls-57{fill:#ccc1f7;}.cls-58{fill:#f0ebff;}.cls-59{fill:#796ee5;}.cls-60{fill:#b7adf2;}.cls-61{fill:#fb446c;}.cls-62{fill:#1e1e2b;}.cls-63{fill:url(#Áåçûìÿííûé_ãðàäèåíò_18-4);}.cls-64{fill:#fff;}.cls-65{fill:url(#linear-gradient-38);}.cls-66,.cls-71,.cls-72{opacity:0.75;}.cls-66{fill:url(#linear-gradient-39);}.cls-68{fill:url(#Áåçûìÿííûé_ãðàäèåíò_18-5);}.cls-70{fill:#fed585;}.cls-71{fill:url(#linear-gradient-40);}.cls-72{fill:url(#linear-gradient-41);}.cls-73{fill:#ffe2ae;}.cls-74{fill:url(#linear-gradient-42);}</style><linearGradient id="linear-gradient" x1="453.7" y1="123.6" x2="7.7" y2="105.13" gradientUnits="userSpaceOnUse"><stop offset="0" stop-color="#fca0bb"/><stop offset="0.05" stop-color="#f6a4c0"/><stop offset="0.47" stop-color="#cfbee2"/><stop offset="0.8" stop-color="#b6cff7"/><stop offset="1" stop-color="#add5ff"/></linearGradient><linearGradient id="linear-gradient-3" x1="406.27" y1="235.78" x2="65.3" y2="18.98" xlink:href="#linear-gradient"/><linearGradient id="linear-gradient-4" x1="406.27" y1="235.78" x2="65.3" y2="18.98" xlink:href="#linear-gradient"/><linearGradient id="linear-gradient-5" x1="438.68" y1="184.81" x2="97.71" y2="-32" xlink:href="#linear-gradient"/><linearGradient id="linear-gradient-6" x1="457.36" y1="155.44" x2="116.39" y2="-61.37" xlink:href="#linear-gradient"/><linearGradient id="linear-gradient-7" x1="457.36" y1="155.44" x2="116.38" y2="-61.37" xlink:href="#linear-gradient"/><linearGradient id="linear-gradient-8" x1="366.87" y1="297.75" x2="25.9" y2="80.94" xlink:href="#linear-gradient"/><linearGradient id="linear-gradient-9" x1="398.94" y1="247.32" x2="57.97" y2="30.51" xlink:href="#linear-gradient"/><linearGradient id="linear-gradient-10" x1="431" y1="196.89" x2="90.03" y2="-19.92" xlink:href="#linear-gradient"/><linearGradient id="linear-gradient-11" x1="366.87" y1="297.75" x2="25.9" y2="80.94" xlink:href="#linear-gradient"/><linearGradient id="linear-gradient-12" x1="409.11" y1="231.32" x2="68.14" y2="14.51" xlink:href="#linear-gradient"/><linearGradient id="linear-gradient-13" x1="350.36" y1="323.71" x2="9.39" y2="106.9" xlink:href="#linear-gradient"/><linearGradient id="linear-gradient-14" x1="398.7" y1="247.68" x2="57.73" y2="30.87" xlink:href="#linear-gradient"/><linearGradient id="linear-gradient-15" x1="445.44" y1="174.19" x2="104.47" y2="-42.62" xlink:href="#linear-gradient"/><linearGradient id="linear-gradient-16" x1="432.45" y1="194.61" x2="91.48" y2="-22.2" xlink:href="#linear-gradient"/><linearGradient id="linear-gradient-17" x1="427.02" y1="203.14" x2="86.05" y2="-13.67" xlink:href="#linear-gradient"/><linearGradient id="linear-gradient-18" x1="465.35" y1="142.87" x2="124.38" y2="-73.94" xlink:href="#linear-gradient"/><linearGradient id="linear-gradient-19" x1="428.31" y1="201.13" x2="87.34" y2="-15.68" xlink:href="#linear-gradient"/><linearGradient id="linear-gradient-20" x1="466.63" y1="140.85" x2="125.66" y2="-75.96" xlink:href="#linear-gradient"/><linearGradient id="linear-gradient-21" x1="440.36" y1="182.17" x2="99.39" y2="-34.63" xlink:href="#linear-gradient"/><linearGradient id="linear-gradient-22" x1="443.56" y1="177.13" x2="102.59" y2="-39.68" xlink:href="#linear-gradient"/><linearGradient id="linear-gradient-23" x1="448.39" y1="169.53" x2="107.42" y2="-47.28" xlink:href="#linear-gradient"/><linearGradient id="linear-gradient-24" x1="453.46" y1="161.57" x2="112.49" y2="-55.23" xlink:href="#linear-gradient"/><linearGradient id="linear-gradient-25" x1="457.81" y1="154.73" x2="116.83" y2="-62.08" xlink:href="#linear-gradient"/><linearGradient id="linear-gradient-26" x1="459.75" y1="151.68" x2="118.78" y2="-65.13" xlink:href="#linear-gradient"/><linearGradient id="linear-gradient-27" x1="464.8" y1="143.73" x2="123.83" y2="-73.08" xlink:href="#linear-gradient"/><linearGradient id="linear-gradient-28" x1="466.83" y1="140.54" x2="125.86" y2="-76.26" xlink:href="#linear-gradient"/><linearGradient id="linear-gradient-29" x1="470.23" y1="135.2" x2="129.26" y2="-81.61" xlink:href="#linear-gradient"/><linearGradient id="linear-gradient-30" x1="475.07" y1="127.58" x2="134.1" y2="-89.22" xlink:href="#linear-gradient"/><linearGradient id="linear-gradient-31" x1="452.1" y1="228.29" x2="-4.52" y2="209.39" gradientUnits="userSpaceOnUse"><stop offset="0" stop-color="#fca0bb"/><stop offset="0.12" stop-color="#e9adcc"/><stop offset="0.33" stop-color="#cfbfe2"/><stop offset="0.54" stop-color="#bccbf2"/><stop offset="0.76" stop-color="#b1d3fc"/><stop offset="1" stop-color="#add5ff"/></linearGradient><linearGradient id="linear-gradient-32" x1="463.44" y1="228.72" x2="-34.72" y2="208.1" xlink:href="#linear-gradient-31"/><linearGradient id="Áåçûìÿííûé_ãðàäèåíò_18" x1="316.53" y1="133.61" x2="297.18" y2="108.39" gradientUnits="userSpaceOnUse"><stop offset="0" stop-color="#c5205c"/><stop offset="0.12" stop-color="#d0275f"/><stop offset="0.45" stop-color="#e83766"/><stop offset="0.75" stop-color="#f6416b"/><stop offset="1" stop-color="#fb446c"/></linearGradient><linearGradient id="linear-gradient-33" x1="302.11" y1="143.27" x2="296.13" y2="123.23" gradientUnits="userSpaceOnUse"><stop offset="0" stop-color="#2795f8"/><stop offset="0.23" stop-color="#55aef5"/><stop offset="0.46" stop-color="#7ac2f3"/><stop offset="0.67" stop-color="#95d1f1"/><stop offset="0.86" stop-color="#a5daf0"/><stop offset="1" stop-color="#abddf0"/></linearGradient><linearGradient id="linear-gradient-34" x1="290.06" y1="148.2" x2="308.47" y2="217.65" gradientUnits="userSpaceOnUse"><stop offset="0" stop-color="#631de3"/><stop offset="0.2" stop-color="#8117e0"/><stop offset="0.57" stop-color="#b10ddc"/><stop offset="0.84" stop-color="#cf07da"/><stop offset="1" stop-color="#da05d9"/></linearGradient><linearGradient id="linear-gradient-35" x1="285.24" y1="147.84" x2="305.71" y2="217.29" xlink:href="#linear-gradient-34"/><linearGradient id="linear-gradient-36" x1="305.48" y1="142.19" x2="298.77" y2="122.4" xlink:href="#linear-gradient-33"/><linearGradient id="linear-gradient-37" x1="265.05" y1="157.66" x2="244.83" y2="122.06" xlink:href="#linear-gradient-34"/><linearGradient id="Áåçûìÿííûé_ãðàäèåíò_3" x1="3459.35" y1="257" x2="3454.32" y2="248.92" gradientTransform="translate(-3168.5 642.29) rotate(-13.04)" gradientUnits="userSpaceOnUse"><stop offset="0.27" stop-color="#4a1c40"/><stop offset="0.99" stop-color="#54254f"/><stop offset="1" stop-color="#54254f"/></linearGradient><linearGradient id="Áåçûìÿííûé_ãðàäèåíò_18-2" x1="381.45" y1="221.04" x2="323.51" y2="74.73" xlink:href="#Áåçûìÿííûé_ãðàäèåíò_18"/><linearGradient id="Áåçûìÿííûé_ãðàäèåíò_18-3" x1="406.1" y1="205.81" x2="349.79" y2="63.62" xlink:href="#Áåçûìÿííûé_ãðàäèåíò_18"/><linearGradient id="Áåçûìÿííûé_ãðàäèåíò_18-4" x1="248.47" y1="171.71" x2="-244.27" y2="56.88" xlink:href="#Áåçûìÿííûé_ãðàäèåíò_18"/><linearGradient id="linear-gradient-38" x1="255.26" y1="142.57" x2="-237.47" y2="27.74" gradientUnits="userSpaceOnUse"><stop offset="0" stop-color="#c4abff"/><stop offset="1" stop-color="#e2d5ff"/></linearGradient><linearGradient id="linear-gradient-39" x1="255.26" y1="142.57" x2="-237.47" y2="27.74" xlink:href="#linear-gradient-38"/><linearGradient id="Áåçûìÿííûé_ãðàäèåíò_18-5" x1="248.82" y1="170.19" x2="-243.91" y2="55.36" xlink:href="#Áåçûìÿííûé_ãðàäèåíò_18"/><linearGradient id="linear-gradient-40" x1="254.47" y1="145.96" x2="-238.27" y2="31.13" xlink:href="#linear-gradient-38"/><linearGradient id="linear-gradient-41" x1="263.32" y1="140.74" x2="-285.52" y2="12.83" xlink:href="#linear-gradient-38"/><linearGradient id="linear-gradient-42" x1="313.25" y1="140.3" x2="307" y2="120.34" xlink:href="#linear-gradient-33"/></defs><g class="cls-1"><g id="Calque_2" data-name="Calque 2"><g id="Layer_1" data-name="Layer 1"><path class="cls-2" d="M445.32,219.49l-.9.07c-5.92.46-12.43.89-19.46,1.3-46,2.7-114.73,4.41-191.52,4.41-80.28,0-151.75-1.87-197.65-4.78l-3.22-.21q-5.22-.34-10-.71l-2.54-.2-3.39-.28.06-1.64a236.72,236.72,0,0,1,18.8-84q2.67-6.25,5.69-12.29C77.16,49.11,148.66,0,231,0,300.57,0,362.4,35.06,401.58,89.4c1.52,2.12,3,4.26,4.47,6.44a234.48,234.48,0,0,1,39.18,121.21Z"/><path class="cls-3" d="M445.32,219.49l-.9.07c-5.92.46-12.43.89-19.46,1.3-46,2.7-114.73,4.41-191.52,4.41-80.28,0-151.75-1.87-197.65-4.78l-3.22-.21q-5.22-.34-10-.71l-2.54-.2-3.39-.28.06-1.64a236.72,236.72,0,0,1,18.8-84q2.67-6.25,5.69-12.29C77.16,49.11,148.66,0,231,0,300.57,0,362.4,35.06,401.58,89.4c1.52,2.12,3,4.26,4.47,6.44a234.48,234.48,0,0,1,39.18,121.21Z"/><rect class="cls-4" x="81.61" y="53.59" width="336.26" height="165.32"/><rect class="cls-5" x="81.61" y="53.59" width="336.26" height="165.33"/><rect class="cls-6" x="71.97" y="53.68" width="355.53" height="21.97"/><rect class="cls-7" x="140.54" y="2.41" width="218.39" height="42.03"/><rect class="cls-8" x="144.72" y="6.59" width="210.04" height="33.67"/><rect class="cls-9" x="93.56" y="85.98" width="89.59" height="132.93"/><rect class="cls-10" x="192.74" y="85.98" width="114" height="132.93"/><rect class="cls-11" x="316.31" y="85.98" width="89.59" height="132.93"/><polygon class="cls-12" points="183.16 85.98 183.16 138.14 102.39 218.91 93.56 218.91 93.56 161.51 169.09 85.98 183.16 85.98"/><polygon class="cls-13" points="235.31 85.98 192.74 128.56 192.74 85.98 235.31 85.98"/><polygon class="cls-14" points="174.83 218.91 183.16 210.58 183.16 218.91 174.83 218.91"/><polygon class="cls-15" points="306.73 87.01 306.73 129.07 216.89 218.91 192.74 218.91 192.74 201 306.73 87.01"/><polygon class="cls-16" points="349.82 85.98 316.31 119.49 316.31 85.98 349.82 85.98"/><rect class="cls-17" x="81.61" y="75.65" width="336.26" height="5.56"/><rect class="cls-18" x="178.47" y="44.44" width="12.44" height="9.24"/><rect class="cls-19" x="311.59" y="44.44" width="12.44" height="9.24"/><rect class="cls-20" x="178.47" y="44.44" width="12.44" height="3.58"/><rect class="cls-21" x="311.59" y="44.44" width="12.44" height="3.58"/><g class="cls-22"><path class="cls-23" d="M189.42,25.37h3.28v3.68a8.18,8.18,0,0,1-2.11.22c-3.48,0-5.56-2.18-5.56-5.85s2.18-5.82,5.83-5.82a7.79,7.79,0,0,1,3.3.63l.7.31.88-3-.52-.25a10.62,10.62,0,0,0-4.32-.81c-5.61,0-9.39,3.62-9.42,9a9,9,0,0,0,2.46,6.5,9,9,0,0,0,6.51,2.32,15.75,15.75,0,0,0,5.19-.92l.44-.16V22.34h-6.66Z"/><path class="cls-24" d="M203.06,14.67l-5.95,17.51h3.59l1.67-5.09h4.77l1.72,5.09h3.66l-6-17.51Zm.2,9.45,1.28-3.8c.07-.22.14-.43.2-.66.07.23.15.46.23.69l1.28,3.77Z"/><path class="cls-25" d="M219.71,21.72c-2.37-.92-2.78-1.54-2.78-2.49s.62-1.75,2.37-1.75a5.82,5.82,0,0,1,2.75.68l.7.38,1-3-.48-.28a7.9,7.9,0,0,0-3.91-.88c-3.42,0-5.9,2.13-5.9,5.06,0,2.39,1.54,4.09,4.71,5.22,2.19.84,2.61,1.55,2.61,2.58,0,1.3-1,2.08-2.71,2.08a6.71,6.71,0,0,1-3.39-.95l-.75-.46L213,31l.42.28a9,9,0,0,0,4.49,1.15c4.38,0,6.34-2.68,6.34-5.33C224.27,23.9,222,22.58,219.71,21.72Z"/><path class="cls-26" d="M237.29,21.72c-2.37-.92-2.78-1.54-2.78-2.49s.62-1.75,2.37-1.75a5.82,5.82,0,0,1,2.75.68l.7.38,1-3-.48-.28A7.9,7.9,0,0,0,237,14.4c-3.42,0-5.9,2.13-5.9,5.06,0,2.39,1.54,4.09,4.71,5.22,2.19.84,2.61,1.55,2.61,2.58,0,1.3-1,2.08-2.71,2.08a6.71,6.71,0,0,1-3.39-.95l-.75-.46L230.6,31l.41.28a9.07,9.07,0,0,0,4.5,1.15c4.38,0,6.33-2.68,6.33-5.33C241.84,23.9,239.54,22.58,237.29,21.72Z"/><polygon class="cls-27" points="255.49 14.67 242.18 14.67 242.18 17.79 247.09 17.79 247.09 32.18 250.55 32.18 250.55 17.79 255.49 17.79 255.49 14.67"/><path class="cls-28" d="M259.28,14.67l-5.95,17.51h3.58l1.68-5.09h4.76l1.73,5.09h3.65l-6-17.51Zm.19,9.45,1.29-3.8c.07-.22.13-.43.2-.66.07.23.15.46.23.69l1.28,3.77Z"/><polygon class="cls-29" points="266.48 17.79 271.39 17.79 271.39 32.18 274.85 32.18 274.85 17.79 279.79 17.79 279.79 14.67 266.48 14.67 266.48 17.79"/><rect class="cls-30" x="280.91" y="14.67" width="3.43" height="17.51"/><path class="cls-31" d="M294.54,14.4c-4.82,0-8.18,3.77-8.18,9.17,0,5.22,3.26,8.87,7.94,8.87,4.07,0,8.17-2.84,8.17-9.19a9.47,9.47,0,0,0-2.14-6.33A7.48,7.48,0,0,0,294.54,14.4Zm-.12,15c-3.08,0-4.49-3-4.49-5.87,0-3,1.4-6.07,4.51-6.07s4.48,3.06,4.48,5.9C298.92,26.36,297.53,29.39,294.42,29.39Z"/><path class="cls-32" d="M314.68,14.67V22.1c0,1.27,0,2.45.05,3.61-.46-.83-1-1.68-1.52-2.55l-5.38-8.49h-3.32V32.18h3.31V24.6c0-1.46,0-2.69,0-3.83.49.88,1.06,1.83,1.73,2.89l5.33,8.52H318V14.67Z"/></g><path class="cls-33" d="M462,219.13c-2.58.26-5.34.51-8.26.76l-4.28.34-1.55.12-.92.07c-6.06.46-12.72.89-19.92,1.3-47.1,2.7-117.46,4.41-196.08,4.41-82.19,0-155.36-1.87-202.36-4.78l-3.29-.21q-5.35-.33-10.2-.71l-2.61-.2L9.07,220c-3.23-.26-6.25-.54-9.07-.82,2.83-.28,5.88-.55,9.13-.82l3.4-.28,2.6-.19c3.74-.29,7.72-.56,11.91-.82l1.51-.1c47-2.91,120.2-4.78,202.44-4.78,80.2,0,151.81,1.78,198.9,4.57,6.13.36,11.85.74,17.11,1.14l.82.06,1.65.12,4.15.34C456.59,218.62,459.39,218.88,462,219.13Z"/><path class="cls-34" d="M446.49,219.09c-2.44.11-5.06.22-7.84.32l-4.06.15-1.47.05-.87,0c-5.75.19-12.08.38-18.91.56-44.71,1.15-104.5,1.88-179.12,1.88-78,0-147.48-.8-192.09-2L39,220q-5.07-.15-9.68-.31l-2.47-.08-3.29-.12c-3.06-.12-5.93-.23-8.61-.35l8.67-.36,3.23-.11,2.47-.09q5.32-.18,11.3-.35l1.44,0c44.6-1.25,114.1-2,192.16-2,76.13,0,137.09.76,181.79,2,5.82.15,11.25.32,16.25.49l.78,0,1.56.06,3.94.14Z"/><path class="cls-35" d="M297.75,126.06a9.8,9.8,0,0,1-.34,1.38c-.16.51-.38,1.06-.63,1.67-.53,1.2-1.23,2.57-2.07,4.06l-.64,1.13-.7,1.18c-.48.79-1,1.61-1.51,2.44l-.08.13c-.49.79-1,1.56-1.46,2.31-.26.39-.51.77-.75,1.15l-.72,1.11c-.47.72-.93,1.4-1.36,2l-1.2,1.77c-.38.54-.72,1-1,1.46s-.6.78-.85,1.07c-.5.58-.86.86-1.07.77s-.25-.55-.15-1.31a11.87,11.87,0,0,1,.25-1.36c.12-.52.26-1.12.45-1.76.36-1.29.86-2.8,1.48-4.46.15-.41.32-.83.49-1.26s.36-.86.55-1.3c.37-.89.79-1.79,1.24-2.7s.91-1.8,1.38-2.63c.23-.42.47-.83.71-1.22s.48-.78.72-1.15c.48-.74.95-1.43,1.43-2.05.07-.09.13-.18.2-.26.41-.53.81-1,1.2-1.43a15.67,15.67,0,0,1,1.3-1.29,7.22,7.22,0,0,1,1.16-.84c.71-.41,1.28-.51,1.64-.27S297.86,125.26,297.75,126.06Z"/><path class="cls-36" d="M297.75,126.06a9.8,9.8,0,0,1-.34,1.38c-.16.51-.38,1.06-.63,1.67-.53,1.2-1.23,2.57-2.07,4.06l-.64,1.13-.7,1.18c-.48.79-1,1.61-1.51,2.44l-.08.13a14.36,14.36,0,0,0,.3-9.78c.41-.53.81-1,1.2-1.43a15.67,15.67,0,0,1,1.3-1.29,7.22,7.22,0,0,1,1.16-.84c.71-.41,1.28-.51,1.64-.27S297.86,125.26,297.75,126.06Z"/><path class="cls-37" d="M307.78,104.3a5,5,0,0,1,4.12,3.7c.17,1.09-.16,2.19-.07,3.29.15,1.95,1.6,3.57,3.17,4.74a38.89,38.89,0,0,1,4.72,3.49,9.76,9.76,0,0,1,2.39,8.75,11.34,11.34,0,0,1-5.55,7.31,13.65,13.65,0,0,1-9.16,1.35,12.13,12.13,0,0,1-6.11-3,8.71,8.71,0,0,1-2.74-6.16c0-3.15,2-6.17,1.48-9.29-.25-1.54-1.08-2.92-1.48-4.42a8.32,8.32,0,0,1,2-7.58A7.31,7.31,0,0,1,307.78,104.3Z"/><path class="cls-38" d="M300.77,121.79l-5.39,10.8a7.55,7.55,0,0,1-2.9-5S295.83,123.2,300.77,121.79Z"/><path class="cls-39" d="M319.92,212.3a2.68,2.68,0,0,1-1.19,2.69,21.37,21.37,0,0,1-2.77,1.44,3.6,3.6,0,0,0-2,2.25,23.42,23.42,0,0,0,10-.14,16.56,16.56,0,0,0-1-6.89C321.85,211.3,321.11,212.32,319.92,212.3Z"/><path class="cls-39" d="M291,213a2.39,2.39,0,0,1-1,2.43,16.72,16.72,0,0,1-2.46,1.35,3.28,3.28,0,0,0-1.76,2.07,19.71,19.71,0,0,0,8.68-.33,15.05,15.05,0,0,0-1-6.18C292.36,212,292,213,291,213Z"/><path class="cls-40" d="M290.42,214.58l3.66-.3a184.6,184.6,0,0,1,5.16-55.41c3.47,17.74,10.06,39.43,20.2,54.43a15,15,0,0,0,4.29-1.89c-9.75-16.91-12.8-41.6-13.47-48.41-.19-1.87-.43-3.73-.74-5.58a33.17,33.17,0,0,0-2-7.34,19,19,0,0,0-1.24-2.42l-2.44-4.4-1.54,0-2.43.06-5.15.11-.49,1.59-1.62,5.29v0A119.35,119.35,0,0,0,290.42,214.58Z"/><path class="cls-41" d="M294.08,214.28a184.6,184.6,0,0,1,5.16-55.41l-3.32-1.31S289.46,192.86,294.08,214.28Z"/><path class="cls-35" d="M307.56,113.35a25.38,25.38,0,0,0-.64,2.71h0c-.05.27-.09.55-.13.82,0,.06,0,.11,0,.17a25.36,25.36,0,0,0-.21,2.89c0,.22,0,.43,0,.65h0c0,.19,0,.38,0,.56,0,.81.11,1.62.22,2.43a4.78,4.78,0,0,1-3,1.27,5.16,5.16,0,0,1-3.22-1,21.81,21.81,0,0,0,1.69-4v0c.06-.18.11-.35.16-.53s.13-.48.19-.73c0,0,0-.05,0-.07.08-.32.15-.64.22-1,0-.09,0-.18.05-.27.11-.56.19-1.11.25-1.67A13,13,0,0,1,307.56,113.35Z"/><path class="cls-42" d="M309.41,131.77a10.75,10.75,0,0,1-1.41,1.67,5.24,5.24,0,0,0-.65.77,22.92,22.92,0,0,0-3.48,9,19.81,19.81,0,0,1-5.17.62,20.62,20.62,0,0,1-3.94-.4h0c-1.58-16.92,4.08-20.79,5.63-21.53l.37-.14h.06a8.91,8.91,0,0,1,1.17-.13c1.47,0,2.73-.41,4.19-.33h.08a3.8,3.8,0,0,1,.83.15h0C307.25,121.55,314.38,124.32,309.41,131.77Z"/><path class="cls-36" d="M307.56,113.35a25.38,25.38,0,0,0-.64,2.71h0c-.05.27-.09.55-.13.82,0,.06,0,.11,0,.17a25.36,25.36,0,0,0-.21,2.89,7.81,7.81,0,0,0-3.91-1.32s0-.05,0-.07c.08-.32.15-.64.22-1,0-.09,0-.18.05-.27.11-.56.19-1.11.25-1.67A13,13,0,0,1,307.56,113.35Z"/><path class="cls-35" d="M307.34,114.64c-.12.35-.25.71-.34,1.07,0,.14-.06.27-.08.41l-.12.16a5.37,5.37,0,0,1-2.82,2,2.92,2.92,0,0,1-3.09-1.08,3.5,3.5,0,0,1-.06-3.11c.4-1,1-1.89,1.47-2.87a5.15,5.15,0,0,0,.43-1.58,3,3,0,0,0-.15-1.29,5.78,5.78,0,0,0,1.23,1c.78.47,1.61.82,2.34,1.35a3.31,3.31,0,0,1,1.48,2.17A4.27,4.27,0,0,1,307.34,114.64Z"/><path class="cls-43" d="M303.05,115.09a3.59,3.59,0,0,1-1.41-.29.15.15,0,0,0-.21.13.94.94,0,0,0,.28.71,1.12,1.12,0,0,0,1,.25c.27-.07.4-.33.49-.6A.15.15,0,0,0,303.05,115.09Z"/><path class="cls-35" d="M307.36,114.06c.07-.21.2-.45.43-.49a.58.58,0,0,1,.53.35,1.41,1.41,0,0,1-1.71,2C306.82,115.33,307.14,114.68,307.36,114.06Z"/><circle class="cls-43" cx="306.94" cy="116.03" r="0.36"/><path class="cls-35" d="M243.34,129.37a6.1,6.1,0,0,1-.16,1,8.61,8.61,0,0,1-.28,1c-.06.19-.13.36-.19.55s-.14.37-.22.56-.16.38-.25.57-.17.39-.27.59-.2.39-.3.59-.21.41-.32.62c-.23.4-.46.83-.71,1.26l-.39.65c-.13.22-.27.44-.41.66s-.27.46-.42.69l-.22.35-.22.35c-.6.94-1.22,1.93-1.87,3s-1.3,2.14-2,3.3l-.39.71-.58,1a3.67,3.67,0,0,1-1.32,1.36,3.49,3.49,0,0,1-1.08.43,3.66,3.66,0,0,1-.74.1c-1.3,0-2.58.07-3.81.14s-2.43.15-3.58.25-2.23.21-3.26.32l-2.89.33-1.27.15-1.16.12c-.36,0-.7.06-1,.08s-.61,0-.88,0a5.32,5.32,0,0,1-1.31-.11,1,1,0,0,1-.65-.43.89.89,0,0,1,.1-.77,4.51,4.51,0,0,1,.83-1.07c.2-.2.43-.4.68-.63l.85-.67c.31-.23.66-.46,1-.7s.76-.49,1.18-.74c.84-.49,1.79-1,2.83-1.47a35.54,35.54,0,0,1,3.41-1.38,40.24,40.24,0,0,1,3.92-1.16l1.13-.25a28,28,0,0,1,.94-3.18,29.63,29.63,0,0,1,1.81-4.06l.26-.46c.08-.16.17-.3.26-.45s.36-.59.54-.87l0,0c.18-.27.37-.54.55-.79s.38-.52.58-.77c.4-.49.79-1,1.2-1.37.2-.21.41-.42.61-.61s.41-.38.62-.55.41-.35.61-.5.42-.3.62-.44.4-.27.61-.39.4-.23.6-.33a9.21,9.21,0,0,1,1.15-.49,7.3,7.3,0,0,1,1.09-.28,4.46,4.46,0,0,1,1.88.08,2.86,2.86,0,0,1,1.37.82,3.19,3.19,0,0,1,.75,1.42A5.23,5.23,0,0,1,243.34,129.37Z"/><path class="cls-36" d="M243.34,129.37a6.1,6.1,0,0,1-.16,1,8.61,8.61,0,0,1-.28,1c-.06.19-.13.36-.19.55s-.14.37-.22.56-.16.38-.25.57-.17.39-.27.59-.2.39-.3.59-.21.41-.32.62c-.23.4-.46.83-.71,1.26l-.39.65c-.13.22-.27.44-.41.66s-.27.46-.42.69l-.22.35-.22.35c-.6.94-1.22,1.93-1.87,3s-1.3,2.14-2,3.3l-.39.71-.58,1a3.67,3.67,0,0,1-1.32,1.36,3.49,3.49,0,0,1-1.08.43,14.94,14.94,0,0,0-.79-16.89c.18-.27.37-.54.55-.79s.38-.52.58-.77c.4-.49.79-1,1.2-1.37.2-.21.41-.42.61-.61s.41-.38.62-.55.41-.35.61-.5.42-.3.62-.44.4-.27.61-.39.4-.23.6-.33a9.21,9.21,0,0,1,1.15-.49,7.3,7.3,0,0,1,1.09-.28,4.46,4.46,0,0,1,1.88.08,2.86,2.86,0,0,1,1.37.82,3.19,3.19,0,0,1,.75,1.42A5.23,5.23,0,0,1,243.34,129.37Z"/><path class="cls-35" d="M281.51,145.51l-.12.09c-.46.35-.92.68-1.38,1l-.15.1c-1.07.73-7.83,5.2-14.69,5.89l0-4.1.33-.3.73-.66.37-.34.37-.35.76-.72.76-.75c1-1,2.07-2.1,3.11-3.26l.36-.4h0l-.25-.32-.36-.45-.36-.46-.37-.43-.36-.43c-.13-.15-.24-.29-.37-.43s-.5-.55-.75-.82l-.18-.2-.19-.2-.38-.39-.21-.22c-.42-.44-.86-.85-1.27-1.27-.12-.13-.26-.23-.38-.35l-.37-.35c-.24-.22-.47-.46-.73-.67l-.72-.65-.17-.17-.18-.15-.35-.3c-.24-.2-.47-.41-.69-.61l-.68-.57-.32-.29-.16-.14-.17-.14c-.22-.17-.42-.35-.63-.53-.4-.37-.81-.69-1.18-1l-.55-.5-.53-.47a21.52,21.52,0,0,1-1.72-1.81c-.23-.3-.44-.57-.61-.84a4.82,4.82,0,0,1-.41-.82,2.43,2.43,0,0,1-.14-1.51,2.13,2.13,0,0,1,.92-1.2,4.92,4.92,0,0,1,.86-.43,5.73,5.73,0,0,1,1.12-.28,10.55,10.55,0,0,1,2.93,0l.86.12c.3,0,.59.12.9.19a15.73,15.73,0,0,1,1.92.56l1,.37.26.11.25.11.52.24,1,.51,1.06.6.54.31.27.17.26.18,1.07.73c.37.25.71.53,1.06.81l.54.44c.17.14.36.28.52.44l.37.34c.39.35.77.71,1.15,1.09l.54.57.5.53.25.28.24.28,1,1.17c.16.19.31.4.46.61l.45.63.44.63.42.67c.14.22.28.44.41.67s.28.44.41.68l.75,1.42.13.26.12.26.25.54c.15.35.31.7.47,1.05l.33.74A4.13,4.13,0,0,1,281.51,145.51Z"/><path class="cls-36" d="M271.92,141.71h0l-.25-.32-.36-.45-.36-.46-.37-.43-.36-.43c-.13-.15-.24-.29-.37-.43s-.5-.55-.75-.82l-.18-.2-.19-.2-.38-.39-.21-.22c-.42-.44-.86-.85-1.27-1.27-.12-.13-.26-.23-.38-.35l-.37-.35c-.24-.22-.47-.46-.73-.67l-.72-.65-.17-.17-.18-.15-.35-.3c-.24-.2-.47-.41-.69-.61l-.68-.57-.32-.29-.16-.14-.17-.14c-.22-.17-.42-.35-.63-.53-.4-.37-.81-.69-1.18-1l-.55-.5-.53-.47a21.52,21.52,0,0,1-1.72-1.81c-.23-.3-.44-.57-.61-.84a4.82,4.82,0,0,1-.41-.82,2.43,2.43,0,0,1-.14-1.51,2.13,2.13,0,0,1,.92-1.2,4.92,4.92,0,0,1,.86-.43,5.73,5.73,0,0,1,1.12-.28,10.55,10.55,0,0,1,2.93,0l.86.12c.3,0,.59.12.9.19a15.73,15.73,0,0,1,1.92.56l1,.37.26.11.25.11.52.24,1,.51,1.06.6.54.31.27.17.26.18,1.07.73c.37.25.71.53,1.06.81l.54.44c.17.14.36.28.52.44l.37.34c.39.35.77.71,1.15,1.09C271.33,134.17,271.92,141.71,271.92,141.71Z"/><path class="cls-44" d="M249.76,165.79l.06,1.79A9,9,0,0,0,249.76,165.79Z"/><path class="cls-45" d="M265.21,158.88l-.08.14.08,0Z"/><path class="cls-39" d="M237.3,209.55a8,8,0,0,0-4.64.65,4.28,4.28,0,0,1-2.24,4.32,14.16,14.16,0,0,1-2.14.72,3.74,3.74,0,0,0-1.9,1.16,1.81,1.81,0,0,0-.17,2.16,34.14,34.14,0,0,0,11.58-.6A18.41,18.41,0,0,1,237.3,209.55Z"/><path class="cls-39" d="M262.86,210.73a14.45,14.45,0,0,1,2,8.29,46.62,46.62,0,0,1-8.6-.12c-.33-1.37.29-2.75.81-4.05s1.4-2.69,1.15-4.07A44.51,44.51,0,0,1,262.86,210.73Z"/><path class="cls-46" d="M230.93,213l7.34-.08,4.58-19.57L250,165.8l.05,1.78,4.46,26,2.93,19.14,6.39-.07S265,150.83,265,150.68a47.91,47.91,0,0,0-15.23-2.41,42.37,42.37,0,0,0-11.32,1.5C238.43,150.11,230.93,213,230.93,213Z"/><polygon class="cls-39" points="238.27 212.89 250.04 165.79 245 163.15 237.74 212.9 238.27 212.89"/><path class="cls-47" d="M257.65,120a11.11,11.11,0,0,0-7.92.07l-1.07,2.06,2.64,1.64,6.46-1.39Z"/><path class="cls-48" d="M274.49,128.38s-.77,6.5-6.7,9.15l-2.58-2.18a11.92,11.92,0,0,0-.2,2.08l.21,20-.64.2a36.61,36.61,0,0,1-26.53-2.33c-.19-.09-.37-.19-.55-.29l.64-5.1.64-5.39.83-6.61h0a16.75,16.75,0,0,1-8.07-7,12.76,12.76,0,0,1,1.68-2.37c2.17-2.54,6.69-6.38,14.8-7.78h0l1.06-.07c.89,0,1.42,0,1.42,0s.19.21.28.31l.36-.08.21-.06.2,0,.51-.12,1.27.64h0l.09,0h0l.46.23.37.19,0,0,.15,0,.14,0,.26-.1a1.57,1.57,0,0,0,.23-.09l.21-.09.11,0,.32-.14.1,0,.12,0,.23-.08.13,0h0l0,0,.49.2a4.19,4.19,0,0,1,.46-.49s.31,0,.84,0,1.14.07,1.93.17a23.31,23.31,0,0,1,12.33,5.22A19.36,19.36,0,0,1,274.49,128.38Z"/><path class="cls-35" d="M257.32,120.75a6.07,6.07,0,0,1-6,3,2.54,2.54,0,0,1-1.7-3h.58s0,0,0,0h0c.13-.21.25-.43.36-.65l.18-.38a9.31,9.31,0,0,0,.59-1.68,14.32,14.32,0,0,0,5.76-2.76,12.59,12.59,0,0,0,.05,4.7,0,0,0,0,0,0,0Q257.22,120.38,257.32,120.75Z"/><path class="cls-49" d="M251.45,107.71a4.8,4.8,0,0,0-.08,4.26c.39-.9.77-1.82,1.16-2.72a1.48,1.48,0,0,0,.18-.87,1,1,0,0,0-.54-.61C251.92,107.65,251.72,107.76,251.45,107.71Z"/><path class="cls-36" d="M250.73,119.71a3.75,3.75,0,0,0,.36.24,5.82,5.82,0,0,0,3,.87,4.74,4.74,0,0,0,.84,0l.24,0a6.16,6.16,0,0,0,1.94-.73s0,0,0,0a12.59,12.59,0,0,1-.05-4.7,14.32,14.32,0,0,1-5.76,2.76A9.31,9.31,0,0,1,250.73,119.71Z"/><path class="cls-35" d="M257.19,115.33l-.09.25a7.43,7.43,0,0,1-2.71,3.73,4.26,4.26,0,0,1-4,.34,3.63,3.63,0,0,1-2.09-3.34,5.08,5.08,0,0,1,1-2.57c.54-.77,1.17-1.47,1.67-2.27a4.92,4.92,0,0,0,.85-2.87l.12,0a6.69,6.69,0,0,1,6.35,1A17.67,17.67,0,0,1,257.19,115.33Z"/><path class="cls-35" d="M257.41,113.74a2.7,2.7,0,0,1,.49-.52.92.92,0,0,1,.67-.22,1,1,0,0,1,.77.92,2.23,2.23,0,0,1-.38,1.24,3.2,3.2,0,0,1-.61.8,1.4,1.4,0,0,1-.92.36.91.91,0,0,1-.82-.51A6,6,0,0,0,257.41,113.74Z"/><path class="cls-43" d="M251.58,115.83a3.54,3.54,0,0,1-1.43-.46.17.17,0,0,0-.24.12,1,1,0,0,0,.22.76,1.13,1.13,0,0,0,1,.37c.29-.05.45-.3.58-.57A.16.16,0,0,0,251.58,115.83Z"/><path class="cls-50" d="M257.65,120s-1.24,4-6.35,3.77l1.42,3.21s5.22-1.58,6-6.07Z"/><path class="cls-50" d="M249.73,120.08l-1.71.76a5.4,5.4,0,0,0,.94,5.33l2.34-2.39C248.81,123,249.73,120.08,249.73,120.08Z"/><path class="cls-51" d="M257.65,113.71a3,3,0,0,1-.74-2.08,3.06,3.06,0,0,1,.88-2,15.79,15.79,0,0,1-3.14.21,5.27,5.27,0,0,1-2.88-1.06,3.23,3.23,0,0,1-1.26-2.71,13.06,13.06,0,0,1,3.25-1.22,4.67,4.67,0,0,1,3.43.67,2.87,2.87,0,0,1,1.14,3.14,5.16,5.16,0,0,1,1.36.65,1.5,1.5,0,0,1,.65,1.17,2.26,2.26,0,0,1-.78,1.36C258.93,112.48,258.27,113.05,257.65,113.71Z"/><path class="cls-46" d="M329.37,127.61v59.81a8,8,0,0,1-7.77,8.05,7.92,7.92,0,0,1-8.07-7.92V162.94A13.59,13.59,0,0,0,301,149.42c-.22,0-34.22,0-34.44,0H191.14v4.4l75.07.08c.93,0,35.64.12,36.52.4a9.12,9.12,0,0,1,6.32,8.66v24.45a12.4,12.4,0,1,0,24.79.16V127.61Z"/><path class="cls-52" d="M337.25,107.25A11.29,11.29,0,0,0,326,118.55v16h11.29V107.25Z"/><rect class="cls-52" x="340.2" y="107.25" width="51.12" height="111.58"/><rect class="cls-52" x="340.2" y="69.91" width="51.12" height="31.31"/><rect class="cls-53" x="353.59" y="101.22" width="14.57" height="6.04"/><rect class="cls-54" x="332.92" y="107.25" width="51.12" height="111.58"/><rect class="cls-55" x="332.92" y="69.91" width="51.12" height="31.31"/><rect class="cls-56" x="335.9" y="72.89" width="45.15" height="25.34"/><rect class="cls-56" x="335.9" y="112.7" width="45.15" height="21.86"/><rect class="cls-57" x="338.88" y="115.68" width="39.19" height="15.9"/><rect class="cls-56" x="335.9" y="141.18" width="45.15" height="36.57"/><rect class="cls-57" x="338.88" y="144.16" width="39.19" height="30.6"/><polygon class="cls-58" points="378.07 115.68 381.06 112.7 381.06 134.56 378.07 131.58 378.07 115.68"/><polygon class="cls-58" points="378.07 174.77 381.06 177.75 381.06 141.18 378.07 144.16 378.07 174.77"/><rect class="cls-59" x="341.85" y="120.4" width="31.99" height="6.46"/><rect class="cls-59" x="341.85" y="168.03" width="31.99" height="2.84"/><rect class="cls-59" x="341.85" y="148.13" width="7.14" height="16.7"/><rect class="cls-59" x="354.28" y="148.13" width="7.14" height="16.7"/><rect class="cls-59" x="366.7" y="148.13" width="7.14" height="16.7"/><path class="cls-59" d="M348.53,88.12a4.89,4.89,0,1,1-9.78,0,4.43,4.43,0,0,1,.11-1,8.08,8.08,0,0,1,1.66-3.55l.34-.5.21-.31a12.85,12.85,0,0,0,2.21-4.34.37.37,0,0,1,.36-.29.36.36,0,0,1,.36.29,13.22,13.22,0,0,0,2.21,4.34c.07.1.15.2.22.31l.33.49a8.13,8.13,0,0,1,1.67,3.56A5,5,0,0,1,348.53,88.12Z"/><path class="cls-56" d="M339.92,87.48h-.07a.39.39,0,0,1-.31-.45,7.67,7.67,0,0,1,1.52-3.1l0,0,.32-.46.21-.32h0l.51-.75a.39.39,0,0,1,.33-.18.39.39,0,0,1,.39.39v.12l-.06.1-.52.76h0l-.21.31-.32.46,0,0a7,7,0,0,0-1.39,2.8A.4.4,0,0,1,339.92,87.48Z"/><path class="cls-56" d="M340.93,91.17a.46.46,0,0,1-.22-.11,4.25,4.25,0,0,1-1.18-2.19.4.4,0,0,1,.31-.46.38.38,0,0,1,.46.31,3.54,3.54,0,0,0,1,1.78.38.38,0,0,1,0,.55A.38.38,0,0,1,340.93,91.17Z"/><path class="cls-59" d="M356.33,86.74h1.93v2.12a4.88,4.88,0,0,1-1.21.12c-2,0-3.24-1.27-3.24-3.41a3.12,3.12,0,0,1,3.39-3.4,4.34,4.34,0,0,1,1.93.38l.45.19.53-1.81-.32-.16a6.34,6.34,0,0,0-2.56-.48c-3.31,0-5.56,2.15-5.57,5.34A4.89,4.89,0,0,0,357,90.85,9.21,9.21,0,0,0,360,90.3l.28-.1V84.9h-4Z"/><path class="cls-59" d="M364.39,80.39l-3.52,10.36H363l1-3h2.76l1,3H370l-3.54-10.36Zm.18,5.56.75-2.2.09-.29c0,.11.06.21.1.32l.74,2.17Z"/><path class="cls-59" d="M374.25,84.54c-1.38-.53-1.62-.89-1.62-1.44s.36-1,1.37-1a3.41,3.41,0,0,1,1.6.4l.44.25.62-1.82-.31-.17a4.61,4.61,0,0,0-2.31-.52c-2,0-3.5,1.26-3.5,3,0,1.42.91,2.43,2.78,3.09,1.28.5,1.52.91,1.52,1.5,0,.75-.58,1.19-1.56,1.19a3.94,3.94,0,0,1-2-.55l-.47-.29L370.27,90l.26.17a5.31,5.31,0,0,0,2.66.68c2.6,0,3.76-1.59,3.76-3.16C377,85.84,375.58,85.05,374.25,84.54Z"/><rect class="cls-52" x="350.56" y="101.22" width="14.57" height="6.04"/><polygon class="cls-53" points="350.56 101.22 365.13 101.22 365.13 104.45 350.56 102.83 350.56 101.22"/><polygon class="cls-60" points="338.88 115.68 335.9 112.7 335.9 134.56 338.88 131.58 338.88 115.68"/><polygon class="cls-60" points="338.88 174.77 335.9 177.75 335.9 141.18 338.88 144.16 338.88 174.77"/><path class="cls-35" d="M266.26,148.05a2.82,2.82,0,0,0-3.18.37,5.91,5.91,0,0,0-1.73,2.89,1.27,1.27,0,0,0,1.27,2l3.87.17a5.51,5.51,0,0,1,4-4.17A9.13,9.13,0,0,0,266.26,148.05Z"/><path class="cls-35" d="M214.34,147.88a2.82,2.82,0,0,0-3.18.37,5.91,5.91,0,0,0-1.73,2.89,1.63,1.63,0,0,0,.16,1.69,1.7,1.7,0,0,0,1.11.31l3.87.17a5.51,5.51,0,0,1,4-4.17A9,9,0,0,0,214.34,147.88Z"/><path class="cls-52" d="M234,131.05H222a2.6,2.6,0,0,0-2.36,1.5l-4,8.49,1.43,1.86,2.14-3.14H234a2.61,2.61,0,0,0,2.6-2.61v-3.49A2.61,2.61,0,0,0,234,131.05Z"/><path class="cls-61" d="M80.8,131.05h12a2.6,2.6,0,0,1,2.36,1.5l4,8.49-1.42,1.86-2.14-3.14H80.8a2.61,2.61,0,0,1-2.61-2.61v-3.49A2.61,2.61,0,0,1,80.8,131.05Z"/><rect class="cls-62" x="205.01" y="174.87" width="22.14" height="43.96" rx="7.86"/><rect class="cls-62" x="87.68" y="174.87" width="22.14" height="43.96" rx="7.86"/><path class="cls-63" d="M229.07,158v28a11.7,11.7,0,0,1-11.7,11.7H97.47A11.7,11.7,0,0,1,85.76,186V158a10.21,10.21,0,0,1,2-6.12l9.3-12.33c.16-.21.31-.43.46-.66a10,10,0,0,0,1-2l10.19-31.79a10.17,10.17,0,0,1,9.57-6.73h78.19a10.17,10.17,0,0,1,9.57,6.73l10.19,31.79a10,10,0,0,0,1,2,6,6,0,0,0,.46.66L227,151.89a10,10,0,0,1,1.88,4.28A10.24,10.24,0,0,1,229.07,158Z"/><path class="cls-64" d="M165.38,98.33l-1.08,0-4.16-.06c-3.61,0-8.84-.07-15.3-.1l-22.68-.06h-3.24c-.27,0-.54,0-.83,0a10.52,10.52,0,0,0-1.69.17l-.42.08-.42.11a10.42,10.42,0,0,0-5.69,3.91c-.17.25-.35.49-.5.75l-.23.39-.2.4c-.07.14-.14.27-.2.41l-.17.42a7.77,7.77,0,0,0-.29.85c-.37,1.12-.73,2.26-1.1,3.4q-1.09,3.42-2.23,7c-1.5,4.69-3,9.27-4.38,13.69-.71,2.21-1.4,4.39-2.08,6.52-.09.26-.17.54-.26.78s-.2.5-.31.74a8.66,8.66,0,0,1-.8,1.39l-.23.33-.24.32-.49.65-1,1.29-7.28,9.69c-.28.38-.57.77-.82,1.17a12.69,12.69,0,0,0-.67,1.26,10.6,10.6,0,0,0-.77,2.64,10.11,10.11,0,0,0-.12,1.33c0,.45,0,.86,0,1.29,0,.85,0,1.67,0,2.48,0,6.46.06,11.68.1,15.29,0,1.81,0,3.21.06,4.16,0,.47,0,.84,0,1.08a1.82,1.82,0,0,0,0,.37,1.82,1.82,0,0,0,0-.37c0-.24,0-.61,0-1.08,0-.95,0-2.35.06-4.16,0-3.61.07-8.83.1-15.29,0-.81,0-1.63,0-2.48,0-.42,0-.86,0-1.27a9,9,0,0,1,.13-1.27,10,10,0,0,1,.75-2.52,10.58,10.58,0,0,1,.64-1.19c.24-.38.52-.75.81-1.13L95.65,142l1-1.28.49-.65.25-.32.24-.35a9.6,9.6,0,0,0,.85-1.46c.12-.26.24-.52.34-.79s.17-.53.26-.8l2.1-6.51c1.42-4.42,2.89-9,4.39-13.69q1.14-3.53,2.23-7l1.09-3.4c.09-.28.17-.57.28-.83l.16-.39c0-.13.13-.26.19-.39l.19-.38.21-.36c.14-.25.31-.48.47-.71A9.85,9.85,0,0,1,115.72,99l.39-.11.4-.08a13,13,0,0,1,1.6-.17h4l22.68-.07c6.46,0,11.69-.06,15.3-.1l4.16-.06,1.08,0a1.82,1.82,0,0,0,.37,0A1.82,1.82,0,0,0,165.38,98.33Z"/><path class="cls-65" d="M208.54,135.62H106.29a3.16,3.16,0,0,1-3-4.12L111.45,106a7.34,7.34,0,0,1,6.87-4.79h78.19a6.75,6.75,0,0,1,1.36.13,7.3,7.3,0,0,1,5.51,4.66l8.17,25.49A3.16,3.16,0,0,1,208.54,135.62Z"/><path class="cls-66" d="M208.54,135.62H106.29a3.16,3.16,0,0,1-3-4.12L111.45,106a7.34,7.34,0,0,1,6.87-4.79h78.19a6.75,6.75,0,0,1,1.36.13,7.3,7.3,0,0,1,5.51,4.66l8.17,25.49A3.16,3.16,0,0,1,208.54,135.62Z"/><path class="cls-67" d="M213.63,190.14l-1.22-7.37a2.34,2.34,0,0,0-2.3-2H104.73a2.35,2.35,0,0,0-2.31,2l-1.22,7.37a2.34,2.34,0,0,0,2.3,2.72H211.33A2.34,2.34,0,0,0,213.63,190.14Z"/><path class="cls-68" d="M228.9,156.17h-143a10.17,10.17,0,0,1,1.88-4.28l9.3-12.33c.16-.21.31-.43.46-.66h119.7a6,6,0,0,0,.46.66L227,151.89A10,10,0,0,1,228.9,156.17Z"/><path class="cls-69" d="M178.41,167.16h-42a1.89,1.89,0,0,0-1.77,2.54l2.62,7.08A1.87,1.87,0,0,0,139,178H175.8a1.88,1.88,0,0,0,1.77-1.23l2.61-7.08A1.89,1.89,0,0,0,178.41,167.16Z"/><path class="cls-70" d="M222.19,162.79l-1.62,8.75-.09.5a3.22,3.22,0,0,1-3,2.63H197.12a3.22,3.22,0,0,1-3.1-2.36l-.26-.94-1.18-4.3a3.22,3.22,0,0,1,2.55-4l8.4-1.44,8.83-1.51,6.12-1.05a3.17,3.17,0,0,1,2.08.34h0A3.2,3.2,0,0,1,222.19,162.79Z"/><path class="cls-70" d="M122.26,167.07l-1.45,5.24a3.22,3.22,0,0,1-3.1,2.36H97.52A3.21,3.21,0,0,1,94.36,172l-.18-.94L93,164.93l-.4-2.14A3.21,3.21,0,0,1,96.35,159l2.2.37,6.24,1.07,6.4,1.1L119.7,163a3.23,3.23,0,0,1,2.56,4Z"/><polygon class="cls-71" points="160.94 101.22 126.54 135.62 111.64 135.62 146.04 101.22 160.94 101.22"/><path class="cls-72" d="M197.87,101.35,163.6,135.62H137.77l34.4-34.4h24.34A6.75,6.75,0,0,1,197.87,101.35Z"/><path class="cls-73" d="M212.36,160.09l-14.59,14.58h-.65a3.22,3.22,0,0,1-3.1-2.36l-.26-.94,9.77-9.77Z"/><path class="cls-73" d="M222.19,162.79l-1.62,8.75-3.13,3.13H205.27l15.29-15.29h0A3.2,3.2,0,0,1,222.19,162.79Z"/><polygon class="cls-73" points="104.79 160.48 94.18 171.09 93.04 164.93 98.55 159.41 104.79 160.48"/><path class="cls-73" d="M121.21,163.74l-10.94,10.93H98.1l13.09-13.09L119.7,163A3.19,3.19,0,0,1,121.21,163.74Z"/><path class="cls-35" d="M314.47,137.8l-.19.31,0,0-.18.31-.22.33-.51.76-.52.72c-.17.24-.36.47-.53.7s-.35.45-.54.67l-.54.64-.56.62c-.35.41-.74.77-1.1,1.15l-.55.53c-.18.17-.36.34-.55.5l-.54.48c-.17.16-.36.3-.53.45s-.35.29-.53.42l-.52.39c-.33.26-.67.48-1,.7s-.63.41-.93.59l-.44.26-.42.22a9.6,9.6,0,0,1-1.44.63,3.37,3.37,0,0,1-1,.22c-.25,0-.41,0-.48-.16a.55.55,0,0,1,.09-.5,4.87,4.87,0,0,1,.63-.77c.28-.3.64-.64,1.05-1,.21-.2.43-.4.65-.63s.48-.46.72-.72.51-.52.77-.81l.39-.44c.13-.15.27-.3.4-.46l.41-.49.4-.51c.14-.17.27-.35.4-.53l.4-.55c.52-.77,1.05-1.58,1.53-2.45.12-.22.24-.44.35-.67s.24-.45.34-.68l.33-.7c.11-.23.2-.48.31-.72l.12-.29c-.24-.73-.49-1.43-.74-2.1l-.15-.37c0-.08-.06-.17-.1-.26s0,0,0-.06a5.46,5.46,0,0,0,5-2.46c.15.53.28,1.08.4,1.65.22,1,.41,2.08.55,3.18A3,3,0,0,1,314.47,137.8Z"/><path class="cls-74" d="M307.08,121.48s5,1,6.84,9.58c0,0-1.62,3-5.92,2.38L305.11,126Z"/><path class="cls-35" d="M301.16,124.22a2.42,2.42,0,0,0,1.88.53,4.66,4.66,0,0,0,2.86-1.31,4.59,4.59,0,0,0,1.18-2,3.8,3.8,0,0,0-.83-.15h-.08c-1.46-.08-2.73.29-4.19.33a8.91,8.91,0,0,0-1.17.13,3.66,3.66,0,0,0-.13.44A2.17,2.17,0,0,0,301.16,124.22Z"/><path class="cls-36" d="M314.47,137.8l-.19.31,0,0a4.75,4.75,0,0,0-5.22-4.3c0-.08-.06-.17-.1-.26s0,0,0-.06a5.46,5.46,0,0,0,5-2.46c.15.53.28,1.08.4,1.65.22,1,.41,2.08.55,3.18A3,3,0,0,1,314.47,137.8Z"/><path class="cls-35" d="M302.79,146.79a5.85,5.85,0,0,0-4.05,4.92,5.32,5.32,0,0,0,3.75.46,5.12,5.12,0,0,1,1.9-4.1C303.89,147.64,303.28,147.22,302.79,146.79Z"/><path class="cls-35" d="M283.52,146.67A5.88,5.88,0,0,0,280,152a5.27,5.27,0,0,0,3.77.06,5.17,5.17,0,0,1,1.44-4.29C284.71,147.4,284.06,147,283.52,146.67Z"/></g></g></g></svg>