<?xml version="1.0" encoding="UTF-8"?><svg xmlns="http://www.w3.org/2000/svg" viewBox="0 0 48.7 55.68"><defs><style>.d{fill:#fff;}.e{fill:#d12832;}.f{fill:#ffbb26;}.g{fill:#252e3e;}.h{fill:#3d4c66;}</style></defs><g id="a"/><g id="b"><g id="c"><g><rect class="g" x="19.63" y="47.98" width="26.39" height="1.87"/><rect class="e" x="16.95" y="50.71" width="31.75" height="4.98"/><path class="e" d="M44.44,0H21.22c-2.36,0-4.27,1.91-4.27,4.27v3.71h-1.7c-1.09,0-1.97,.88-1.97,1.97v.85c-1.1,.51-1.87,1.62-1.87,2.91v2.06c0,6.09-3.6,11.45-6.78,16.18C2.33,35.37,.33,38.34,.05,41.1c-.24,2.29,.4,4.39,1.78,5.92,1.28,1.42,3.11,2.2,5.14,2.2,4.15,0,6.93-3.21,6.93-8V20.26h3.05v26.89h31.75V4.27c0-2.36-1.91-4.27-4.27-4.27ZM11.41,41.23c0,2.66-1.17,5.51-4.44,5.51-1.34,0-2.48-.48-3.29-1.38-.91-1.01-1.32-2.43-1.16-4,.22-2.15,2.05-4.87,4.17-8.03,1.57-2.34,3.33-4.96,4.72-7.82v15.73Z"/><path class="f" d="M24.86,4.58h15.94c1.62,0,2.93,1.31,2.93,2.93V15.95c0,1.62-1.31,2.93-2.93,2.93h-15.94c-1.62,0-2.93-1.31-2.93-2.93V7.51c0-1.62,1.31-2.93,2.93-2.93Z"/><path class="h" d="M16.95,7.97h-1.7c-1.09,0-1.97,.88-1.97,1.97v.85c-1.1,.51-1.87,1.62-1.87,2.91v2.06c0,6.09-3.6,11.45-6.78,16.18C2.33,35.37,.33,38.34,.05,41.1c-.24,2.29,.4,4.39,1.78,5.92,1.28,1.42,3.11,2.2,5.14,2.2,4.15,0,6.93-3.21,6.93-8V20.26h3.05V7.97Zm-5.54,33.26c0,2.66-1.17,5.51-4.44,5.51-1.34,0-2.48-.48-3.29-1.38-.91-1.01-1.32-2.43-1.16-4,.22-2.15,2.05-4.87,4.17-8.03,1.57-2.34,3.33-4.96,4.72-7.82v15.73Z"/><path class="d" d="M37.59,6.06c.77,0,1.4,.23,1.4,.5v.67c0,.28-.63,.5-1.4,.5h-12.59c-.77,0-1.4-.23-1.4-.5v-.67c0-.28,.63-.5,1.4-.5h12.59Z"/></g></g></g></svg>