<svg xmlns="http://www.w3.org/2000/svg" version="1.1" xmlns:xlink="http://www.w3.org/1999/xlink" xmlns:svgjs="http://svgjs.com/svgjs" width="512" height="512" x="0" y="0" viewBox="0 0 128 128" style="enable-background:new 0 0 512 512" xml:space="preserve" class=""><g><ellipse xmlns="http://www.w3.org/2000/svg" cx="64" cy="103.5" fill="#cce5fd" rx="32.673" ry="12.066" data-original="#cce5fd"></ellipse><path xmlns="http://www.w3.org/2000/svg" d="m63.92 103.5s22.53-28.42 28.73-50.19a31.189 31.189 0 0 0 1.51-7.4c0-.76.15-1.52.15-2.27a30.535 30.535 0 0 0 -30.23-30.84h-.16a30.533 30.533 0 0 0 -30.23 30.83v.01a11.6 11.6 0 0 0 .15 2.27 31.189 31.189 0 0 0 1.51 7.4c6.05 21.77 28.57 50.19 28.57 50.19zm.08-72.28a12.07 12.07 0 1 1 -12.07 12.07 12.078 12.078 0 0 1 12.07-12.07z" fill="#e5384f" data-original="#e5384f" class=""></path></g></svg>